Coordinates
version=1
nRows=21
nColumns=34
inDegrees=no

Units are S.I. units (second, meters, Newtons, ...)
If the header above contains a line with 'inDegrees', this indicates whether rotational values are in degrees (yes) or radians (no).

endheader
time	pelvis_tilt	pelvis_list	pelvis_rotation	pelvis_tx	pelvis_ty	pelvis_tz	hip_flexion_r	hip_adduction_r	hip_rotation_r	knee_angle_r	ankle_angle_r	subtalar_angle_r	mtp_angle_r	hip_flexion_l	hip_adduction_l	hip_rotation_l	knee_angle_l	ankle_angle_l	subtalar_angle_l	mtp_angle_l	lumbar_extension	lumbar_bending	lumbar_rotation	arm_flex_r	arm_add_r	arm_rot_r	elbow_flex_r	pro_sup_r	arm_flex_l	arm_add_l	arm_rot_l	elbow_flex_l	pro_sup_l
0.47	0.0820019	-0.0843133	-0.13616	0.338513	0.954901	-0.150702	-0.227649	0.129237	-0.0592116	0.124656	0.442044	0.184104	-0.0162096	0.365301	-0.135184	-0.159521	0.130812	0.100169	0.0108465	-0.0183103	-0.267394	-0.0267082	0.0174658	0.17633	-0.188351	0.215567	0.739662	1.89593	0.032943	-0.138508	-0.232702	0.552499	1.77215
0.48	0.0873706	-0.0836707	-0.139621	0.349231	0.953274	-0.149635	-0.244822	0.126076	-0.0599751	0.128653	0.455735	0.190906	-0.0162132	0.35623	-0.133552	-0.160203	0.094531	0.102323	0.0131403	-0.0182963	-0.276435	-0.0374763	0.015765	0.184027	-0.185622	0.22353	0.740963	1.89627	0.0386954	-0.144219	-0.234428	0.551278	1.76967
0.49	0.0919461	-0.082792	-0.142284	0.360055	0.951595	-0.14866	-0.260502	0.122553	-0.0625596	0.133918	0.468951	0.198558	-0.0162168	0.349733	-0.131922	-0.162479	0.0668076	0.105569	0.0123253	-0.0182823	-0.284472	-0.0484731	0.0136103	0.190333	-0.18257	0.230237	0.742333	1.89694	0.0443345	-0.149996	-0.236187	0.550048	1.76732
0.5	0.0955443	-0.0815279	-0.14414	0.371001	0.949872	-0.147772	-0.274609	0.118653	-0.0665408	0.140211	0.481287	0.206318	-0.0162204	0.346176	-0.130211	-0.166859	0.0481647	0.109823	0.00924741	-0.0182683	-0.291271	-0.0598403	0.0110556	0.195043	-0.179233	0.235609	0.743915	1.89802	0.0497673	-0.155796	-0.238072	0.548947	1.76523
0.51	0.0980303	-0.0797276	-0.145198	0.382094	0.948115	-0.146965	-0.287146	0.114349	-0.0714418	0.147238	0.492342	0.21343	-0.0162241	0.345639	-0.128269	-0.173421	0.0385401	0.114645	0.00460405	-0.0182543	-0.296651	-0.0717229	0.00815363	0.198002	-0.175674	0.239652	0.745819	1.89958	0.0549072	-0.161572	-0.240171	0.5481	1.76355
0.52	0.0993229	-0.0772469	-0.145479	0.393357	0.946335	-0.146238	-0.298183	0.109598	-0.0767971	0.154689	0.501757	0.219224	-0.0162277	0.347908	-0.125882	-0.181759	0.0372681	0.119209	-0.0011816	-0.0182403	-0.300495	-0.084262	0.00495337	0.199118	-0.171982	0.242476	0.748104	1.90168	0.0596786	-0.167274	-0.242554	0.547606	1.76241
0.53	0.0993944	-0.0739555	-0.14502	0.404815	0.944543	-0.14559	-0.307838	0.104333	-0.0822198	0.162283	0.509244	0.223201	-0.0162313	0.35253	-0.122799	-0.191049	0.0431505	0.122346	-0.0080025	-0.0182263	-0.302751	-0.0975909	0.00150121	0.198371	-0.168255	0.244294	0.750757	1.90436	0.0640197	-0.172854	-0.245254	0.547533	1.76189
0.54	0.0982643	-0.069743	-0.143869	0.416491	0.942746	-0.145026	-0.316239	0.098468	-0.0874533	0.169811	0.514609	0.225094	-0.0162349	0.358887	-0.118749	-0.200214	0.0546138	0.122694	-0.0160206	-0.0182123	-0.303426	-0.111832	-0.0021533	0.195805	-0.164598	0.24541	0.753695	1.90764	0.0678862	-0.178278	-0.24826	0.547916	1.76207
0.55	0.0959885	-0.0645266	-0.142088	0.428404	0.940954	-0.144546	-0.323499	0.0918981	-0.0923948	0.177179	0.517758	0.224875	-0.0162386	0.366315	-0.113486	-0.208146	0.0699253	0.118907	-0.0255496	-0.0181983	-0.302584	-0.12709	-0.00594916	0.191525	-0.161108	0.246188	0.756765	1.9115	0.0712553	-0.183527	-0.251504	0.548754	1.76294
0.56	0.0926581	-0.0582472	-0.139753	0.440562	0.939222	-0.144164	-0.32968	0.0845211	-0.0970792	0.184429	0.51868	0.222714	-0.0162422	0.374209	-0.106829	-0.21395	0.0874309	0.109923	-0.036903	-0.0181843	-0.300318	-0.143439	-0.0098053	0.18568	-0.157861	0.247017	0.759758	1.91593	0.0741282	-0.188605	-0.254854	0.550014	1.76449
0.57	0.0883708	-0.0509011	-0.136952	0.452965	0.937575	-0.143878	-0.334781	0.0762523	-0.101625	0.191751	0.517409	0.218879	-0.0162458	0.382113	-0.0987006	-0.217131	0.105774	0.0952061	-0.0502498	-0.0181703	-0.296748	-0.160919	-0.0136163	0.178448	-0.154909	0.248267	0.762434	1.9209	0.07653	-0.193535	-0.258114	0.551632	1.76665
0.58	0.0832284	-0.0425408	-0.133776	0.465603	0.936038	-0.143684	-0.338732	0.0670527	-0.10616	0.199469	0.513972	0.213628	-0.0162495	0.389773	-0.0891663	-0.21769	0.124054	0.0749449	-0.0655095	-0.0181563	-0.292005	-0.179519	-0.017254	0.170023	-0.152273	0.250255	0.764545	1.9264	0.0785077	-0.198363	-0.261035	0.553518	1.7693
0.59	0.0773313	-0.0332813	-0.130319	0.478459	0.934636	-0.143572	-0.341392	0.0569519	-0.110743	0.208022	0.508332	0.207089	-0.0162531	0.397144	-0.0784433	-0.216103	0.141896	0.0501335	-0.0823072	-0.0181423	-0.286226	-0.199159	-0.0205781	0.160602	-0.149938	0.253213	0.765866	1.93244	0.0801233	-0.203149	-0.263324	0.555564	1.7723
0.6	0.070776	-0.0232993	-0.12667	0.491506	0.933389	-0.143535	-0.342556	0.0460588	-0.115313	0.217939	0.500339	0.199187	-0.0162568	0.404357	-0.0668867	-0.213193	0.159415	0.0225221	-0.0999938	-0.0181283	-0.279542	-0.219688	-0.0234547	0.150381	-0.147864	0.257275	0.766218	1.93901	0.0814461	-0.207959	-0.264679	0.557648	1.77544
0.61	0.0636561	-0.0128236	-0.122903	0.504712	0.932313	-0.143563	-0.341967	0.0345581	-0.119672	0.229814	0.489692	0.18963	-0.0162604	0.411646	-0.0549447	-0.209922	0.177096	-0.00557563	-0.117725	-0.0181143	-0.27209	-0.240884	-0.0257802	0.139554	-0.145985	0.262472	0.765483	1.94611	0.0825434	-0.212856	-0.264814	0.559647	1.77846
0.62	0.0560663	-0.00211735	-0.119075	0.518043	0.931424	-0.143647	-0.339331	0.0226906	-0.123516	0.244278	0.475931	0.177943	-0.016264	0.419249	-0.0430913	-0.207156	0.195586	-0.0315966	-0.134587	-0.0181003	-0.264013	-0.26247	-0.0275068	0.128312	-0.14422	0.268748	0.763612	1.95371	0.0834724	-0.217891	-0.263498	0.561446	1.78108
0.63	0.0481109	0.00854707	-0.11522	0.531461	0.930739	-0.143784	-0.334341	0.0107201	-0.126494	0.261967	0.458447	0.163561	-0.0162677	0.427313	-0.0317496	-0.205478	0.215468	-0.0531042	-0.149732	-0.0180863	-0.255475	-0.284131	-0.028661	0.116855	-0.14248	0.275973	0.760622	1.96173	0.0842759	-0.223095	-0.260587	0.562948	1.78302
0.64	0.039913	0.0189178	-0.111349	0.544928	0.930271	-0.143974	-0.326705	-0.00110888	-0.128294	0.283486	0.436528	0.145947	-0.0162714	0.435807	-0.0212219	-0.205081	0.237058	-0.0681553	-0.162493	-0.0180723	-0.246674	-0.305549	-0.0293518	0.105385	-0.14068	0.28397	0.756582	1.97005	0.0849811	-0.22847	-0.256043	0.564084	1.78401
0.65	0.0316214	0.0287909	-0.107457	0.558408	0.930037	-0.144223	-0.316178	-0.0126129	-0.128715	0.309367	0.409439	0.124716	-0.016275	0.444481	-0.0116445	-0.205778	0.26027	-0.0755829	-0.172477	-0.0180583	-0.237839	-0.326429	-0.0297633	0.0941127	-0.138751	0.292547	0.751598	1.97852	0.0856018	-0.233992	-0.249953	0.564822	1.78391
0.66	0.0234118	0.0380293	-0.103533	0.571868	0.930046	-0.144542	-0.302587	-0.0237019	-0.127733	0.340025	0.376528	0.0997456	-0.0162787	0.452882	-0.00297644	-0.207095	0.284584	-0.0751339	-0.179602	-0.0180443	-0.229233	-0.346526	-0.0301325	0.0832466	-0.13665	0.301522	0.745802	1.98696	0.0861418	-0.239605	-0.242512	0.56517	1.78264
0.67	0.0154785	0.0465689	-0.0995756	0.585277	0.930309	-0.144945	-0.285854	-0.0343917	-0.125507	0.375713	0.337369	0.0712282	-0.0162823	0.460405	0.00497231	-0.208423	0.30913	-0.0674369	-0.184089	-0.0180303	-0.221132	-0.365656	-0.0307162	0.0729864	-0.134375	0.310751	0.739349	1.99519	0.0865984	-0.245226	-0.234013	0.565177	1.78031
